<?xml version="1.0" encoding="UTF-8"?>
<svg className="main-nav__logo" version="1.1" viewBox="170 210 400 300" xmlns="http://www.w3.org/2000/svg">
 <g>
  <path d="m603.82 438.32c-1.9922-5.9805-8.9727-9.9688-8.9727-9.9688s-0.99609-2.9922-4.4883-6.9805c-3.4883-3.9883-13.957-12.461-17.449-14.957-3.9883-2.4922-8.4727-3.9883-30.906-7.9766-49.352-4.9844-66.801-11.465-74.777-14.457 0.99609-3.4883-1.4961-7.4766-3.4883-8.9727-2.4922-1.4961-10.969-4.9844-15.953-5.4844s-13.461-5.9805-16.449-7.4766c-3.4883-1.4961-4.9844-3.4883-8.9727-5.4844-3.4883-1.9922-11.465-4.9844-16.449-4.9844-4.9844 0-18.445-6.9805-20.938-8.9727-2.4922-1.9922-8.9727-8.9727-14.457-11.965-5.4844-2.4922-11.965-4.4883-15.453-6.4805-3.4883-2.4922-5.9805-13.957-5.9805-14.457s0.5-3.4883 0-5.9805-6.9805-12.961-8.4727-15.453c-1.4961-2.4922-8.9727-21.438-9.9688-23.93-1.4961-2.4922-7.4766-18.445-9.9688-22.93-2.4922-4.9844-8.9727-12.961-13.461-12.961-4.4883-0.5-19.441 8.4727-23.93 9.9688-4.4883 1.4961 0 0-17.945 8.9727-16.949 6.4805-43.867 14.957-58.324 19.941-7.4766 2.4922-10.969 2.9922-21.438 5.4844-16.457 0.99609-16.957 6.9766-16.957 6.9766s-2.4922 2.4922 0 4.9844c-3.4883 1.4961-4.9844 30.41-4.9844 30.41s-1.9922 1.9922-3.9883 3.4883c0 1.4961-1.4961 25.922-1.9922 27.418-0.5 1.4961-1.9922 3.9883-4.4883 6.4805-2.4922 2.4922 0 16.449-0.99609 20.438-1.4961 0.5-0.5 4.4883 0 8.4727 0.5 4.4883-0.5 57.328 0 81.754 0.5 23.93 2.4922 22.93 4.9844 27.918 8.9727 8.9727 27.918 7.9766 33.398 8.9727 5.9805 0.99609 70.789 0.5 82.754 0s57.328-1.4961 60.32-1.4961c3.4883 0 69.293 1.4961 76.27 1.4961 6.9805 0 44.867-2.4922 77.766-5.4844 32.902-3.4883 64.805-10.469 83.75-16.449 18.445-5.9805 25.922-12.961 30.906-18.445 4.4883-5.4805 3.4922-15.449 1.5-21.43zm-145.57-3.9883c1.9922-2.9922 1.9922-5.4844 2.4922-7.4766 1.4961-5.4844 1.4961-5.4844 3.9883-12.461 0-0.5 0.5-0.5 0.5-0.99609 11.465-13.957 1.4961-20.438-2.4922-22.434-0.99609-0.5-1.4961-1.4961-1.4961-2.4922 0-1.9922 1.9922-3.4883 3.9883-2.4922 2.4922 0.99609 5.4844 1.9922 6.9805 2.4922 2.4922 0.5 13.957 3.9883 16.449 4.4883 2.4922 0.5 16.949 2.9922 21.934 3.9883 4.9844 0.99609 36.391 4.9844 38.387 4.9844 2.4922 0 14.957 3.9883 17.945 5.4844 2.9922 1.4961-2.4922 3.4883-3.4883 3.9883s-5.9805 2.4922-10.469 3.4883c0 0-24.426 5.4844-28.414 5.9805-3.9883 0.5-19.941 3.4883-26.918 4.4883-6.4805 0.99609-10.969 1.9922-17.449 8.9727 0 0-0.5 0.5-0.5 0.99609-2.4922 5.4844-4.4883 5.4844-4.4883 5.4844s-3.4883 0.99609-9.9688 0.5h-0.5c-4.4844-1.0039-7.9766-3.4961-6.4805-6.9844zm-295.11-113.16c0-0.99609 0.5-1.4961 1.4961-1.4961 2.4922-0.99609 9.4727-3.4883 12.961-4.4883 4.4883-1.4961 82.754-39.879 108.68-52.344 25.922-12.461 31.906 11.465 31.906 11.465l4.9844 20.938s4.4883 10.969-41.875 30.41c-38.883 16.449-46.859 34.895-48.355 40.379-0.5 0.99609-0.99609 1.4961-2.4922 1.4961-38.391-3.4844-54.34-8.9688-68.301-13.457-0.99609-0.5-1.4961-0.99609-1.4961-1.9922 0.003907-11.465 1.9961-26.422 2.4961-30.91zm-6.9805 58.824c-0.99609-3.9883 0.5-13.461 0.5-13.461s-0.99609-8.9727-0.5-9.9688c0.99609-1.4961 31.406 9.9688 57.828 12.961 7.9766 0.5 30.906 2.9922 45.363-5.9805 14.457-8.9727 37.387-21.438 37.387-21.438s1.4961 13.461 10.969 14.457c8.9727 0.99609 24.926 1.9922 30.906 2.9922 5.9805 0.99609 12.461 4.4883 13.957 5.4844 1.4961 0.99609 8.9727 9.4727 12.961 12.461 3.9883 2.9922 15.953 14.457 20.938 16.449 4.9844 1.9922 11.965 4.9844 11.965 4.9844s2.4922 23.93-9.9688 52.344l-4.9844 10.969s-70.789-6.4805-79.262-6.9805c-7.9766-0.5-46.859 0-47.855-1.4961-1.4961-1.4961-18.445-37.887-18.445-37.887s-2.4922-7.9766-14.457-11.465c-11.965-4.4844-66.801-19.938-67.301-24.426zm442.18 77.77c-1.4961 2.4922-2.9922 4.9844-5.4844 6.9805-6.4805 5.9805-32.402 12.961-62.312 18.941-30.41 5.9805-104.19 9.4727-118.14 10.969-14.457 1.4961-62.812 0.5-72.285 0s-47.855 0-51.348 0c-3.4883 0-50.348-0.5-59.82 0-8.4727 0.5-40.379 0-49.352 0-1.4961 0-3.4883 0-4.9844-0.5-1.9922-0.5-4.4883-0.99609-6.9805-1.9922-4.4883-1.4961-7.9766-5.4844-8.9727-9.9688 0-0.99609-0.5-1.4961-0.5-2.4922-0.99609-7.4766-0.5-21.934 0-26.918 0-0.99609 0.99609-1.4961 1.9922-1.4961 1.9961-0.003906 7.9805 0.99219 13.961 1.9883 7.4766 1.4961 38.387 1.4961 46.859 1.4961 1.4961 0 2.9922 0 3.9883 0.5 8.4727 0.99609 4.9844 0.99609 23.43 2.9922h2.4922c21.934 0 28.914 0.5 68.297 2.9922 8.9727 0.99609 49.852 3.9883 94.715 5.9805 44.867 1.9922 112.66-7.4766 131.11-9.4727 18.445-1.9922 42.371-11.965 44.867-13.461 1.4961-0.99609 3.4883-2.4922 4.9844-3.4883 0.99609-0.99609 2.4922-0.99609 3.4883 0 0.5 0.5 0.99609 1.4961 0.99609 2.4922 2.4961 4.4844 2 9.9688-0.99219 14.457z"/>
  <path d="m304.21 275.3c0 3.0273-2.4531 5.4805-5.4805 5.4805-3.0312 0-5.4844-2.4531-5.4844-5.4805 0-3.0312 2.4531-5.4844 5.4844-5.4844 3.0273 0 5.4805 2.4531 5.4805 5.4844"/>
  <path d="m312.69 295.74c0 3.0273-2.457 5.4844-5.4844 5.4844-3.0273 0-5.4844-2.457-5.4844-5.4844 0-3.0273 2.457-5.4844 5.4844-5.4844 3.0273 0 5.4844 2.457 5.4844 5.4844"/>
 </g>
</svg>
